<?xml version="1.0" standalone="no"?>
<!DOCTYPE svg PUBLIC "-//W3C//DTD SVG 1.1//EN" "http://www.w3.org/Graphics/SVG/1.1/DTD/svg11.dtd" >
<!--
2013-9-30: Created.
-->
<svg>
<metadata>
Created by iconfont
</metadata>
<defs>

<font id="iconfont" horiz-adv-x="1024" >
  <font-face
    font-family="iconfont"
    font-weight="500"
    font-stretch="normal"
    units-per-em="1024"
    ascent="896"
    descent="-128"
  />
    <missing-glyph />
    
    <glyph glyph-name="gugeliulanqi" unicode="&#59309;" d="M854.113 457.75a347.032 347.032 0 0 1-18.73 60C782.737 644.562 657.636 734 512 734c-87.267 0-167.111-32.178-228.474-85.195-15.76-13.618-30.315-28.579-43.439-44.766C191.305 543.878 162 467.311 162 384c0-153.936 99.94-284.883 238.309-331.616 19.573-6.611 39.89-11.582 60.829-14.644C477.751 35.309 494.723 34 512 34c192.988 0 350 157.012 350 350 0 25.303-2.762 49.961-7.887 73.75zM512 674c111.682 0 208.755-63.501 257.188-156.25H508.116v-0.254c-47.281-1.812-88.198-28.848-109.436-68.145l-84.525 146.401C366.011 644.234 435.578 674 512 674z m71.116-286.25c0-38.594-31.401-70-70-70s-70 31.406-70 70 31.401 70 70 70 70-31.406 70-70zM222 384c0 60.64 18.741 116.973 50.691 163.569L391.95 341.007c18.827-48.623 65.973-83.257 121.166-83.257 2.004 0 3.955 0.21 5.938 0.303L431.03 105.592C310.417 140.729 222 252.203 222 384z m290-290c-6.058 0-12.057 0.249-18.024 0.615l130.308 225.703c0.282 0.488 0.446 1.006 0.68 1.504 11.455 19.36 18.152 41.851 18.152 65.928 0 25.781-7.635 49.766-20.63 70h169.982A289.413 289.413 0 0 0 802 384c0-159.902-130.093-290-290-290z"  horiz-adv-x="1024" />

    
    <glyph glyph-name="dianying" unicode="&#59310;" d="M222 384c0 159.902 130.093 290 290 290s290-130.098 290-290c0-67.969-23.567-130.503-62.877-180H812v-0.059c31.715 52.642 50 114.248 50 180.059 0 192.988-157.012 350-350 350S162 576.988 162 384s157.012-350 350-350h340v60H512c-159.907 0-290 130.098-290 290zM512 444c49.624 0 90 40.371 90 90s-40.376 90-90 90-90-40.371-90-90 40.376-90 90-90z m0 120c16.543 0 30-13.457 30-30s-13.457-30-30-30-30 13.457-30 30 13.457 30 30 30zM512 144c49.624 0 90 40.371 90 90s-40.376 90-90 90-90-40.371-90-90 40.376-90 90-90z m0 120c16.543 0 30-13.457 30-30s-13.457-30-30-30-30 13.457-30 30 13.457 30 30 30zM752 384c0 49.624-40.371 90-90 90s-90-40.376-90-90 40.371-90 90-90 90 40.376 90 90z m-120 0c0 16.543 13.457 30 30 30s30-13.457 30-30-13.457-30-30-30-30 13.457-30 30zM272 384c0-49.624 40.371-90 90-90s90 40.376 90 90-40.371 90-90 90-90-40.376-90-90z m120 0c0-16.543-13.457-30-30-30s-30 13.457-30 30 13.457 30 30 30 30-13.457 30-30z"  horiz-adv-x="1024" />

    
    <glyph glyph-name="paizhao" unicode="&#59314;" d="M512 478.595c-67.81 0-122.973-55.168-122.973-122.973S444.19 232.649 512 232.649s122.973 55.168 122.973 122.973S579.81 478.595 512 478.595z m0-189.19c-36.512 0-66.216 29.709-66.216 66.216 0 36.508 29.704 66.216 66.216 66.216s66.216-29.709 66.216-66.216c0-36.507-29.704-66.216-66.216-66.216zM701.189 677.243h104.054v-56.757H701.189zM805.243 601.568H670.525l-17.806 75.676H371.281l-17.806-75.676H162V90.757h700V601.568h-56.757zM266.054 147.513h-47.297V544.811h179.67l17.806 75.676h191.536l17.806-75.676H805.244v-397.297H266.054z"  horiz-adv-x="1024" />

    
    <glyph glyph-name="renlianshibie" unicode="&#59315;" d="M342 499.854h60v-100h-60zM622 499.854h60v-100h-60zM222 674h169.998v60H162v-230h60zM631.998 734v-60H802v-170h60V734zM222 264h-60v-230h229.998v60H222zM802 94H631.998v-60H862V264h-60zM590.826 293.602c-18.296-23.528-46.777-38.748-78.826-38.748s-60.532 15.222-78.828 38.75l-42.644-42.646c29.341-34.309 72.888-56.104 121.472-56.104s92.131 21.794 121.47 56.104l-42.644 42.644z"  horiz-adv-x="1024" />

    
    <glyph glyph-name="zhiwen" unicode="&#59319;" d="M482.833 442.333h58.333V34h-58.333zM512 597.889c-96.496 0-175-78.509-175-175v-272.222h58.333V422.889c0 64.334 52.338 116.667 116.667 116.667s116.667-52.333 116.667-116.667v-272.222H687V422.889c0 96.491-78.504 175-175 175zM512 734c-176.908 0-320.833-143.925-320.833-320.833v-165.278H249.5V413.167c0 144.741 117.759 262.5 262.5 262.5s262.5-117.759 262.5-262.5v-165.278h58.333V413.167C832.833 590.075 688.908 734 512 734z"  horiz-adv-x="1024" />

    
    <glyph glyph-name="yinle" unicode="&#59318;" d="M648.111 706.297c-18.682 7.916-38.171 14.289-58.333 18.884v-269.164c-25.884 9.725-56.935 9.466-86.071-3.292-54.664-23.921-82.008-82.515-60.958-130.609 10.444-23.869 31.763-42.027 58.49-49.817 9.874-2.877 20.171-4.306 30.581-4.306 16.188 0 32.656 3.451 48.231 10.268 41.984 18.37 67.749 57.196 67.953 96.016h0.107v267.31C740.482 592.599 803.667 495.642 803.667 384c0-160.825-130.842-291.667-291.667-291.667S220.333 223.175 220.333 384 351.175 675.667 512 675.667c3.261 0 6.487-0.14 9.722-0.247v58.333c-3.24 0.089-6.462 0.247-9.722 0.247-192.992 0-350-157.008-350-350s157.008-350 350-350 350 157.008 350 350c0 144.721-88.336 269.096-213.889 322.297z m-91.445-374.592c-12.908-5.649-27.154-6.874-39.102-3.404-5.929 1.728-16.587 6.262-21.372 17.199-8.018 18.315 6.133 42.948 30.899 53.786 8.236 3.603 16.791 5.312 24.842 5.312 16.164 0 30.287-6.883 35.637-19.107 8.018-18.32-6.138-42.953-30.904-53.786z"  horiz-adv-x="1024" />

    
    <glyph glyph-name="shuidi" unicode="&#59323;" d="M627.818 712.57l-18.939 16.565-18.939-16.565c-5.002-4.375-68.856-60.856-128.623-140.038-40.753 50.483-79.946 85.121-83.348 88.095l-18.939 16.565-18.939-16.565C332.819 654.268 162 503.25 162 361.961c0-120.874 88.385-219.218 197.03-219.218 16.952 0 33.409 2.397 49.116 6.897 46.311-67.289 119.042-110.775 200.733-110.775 139.57 0 253.121 126.82 253.121 282.699 0 184.074-224.621 382.643-234.182 391.006zM359.03 200.277c-76.918 0-139.495 72.526-139.495 161.684 0 90.862 97.632 196.435 139.622 237.638 19.546-19.084 44.39-45.913 67.683-76.429-39.748-62.12-71.077-132.87-71.077-201.606 0-42.631 8.543-83.061 23.738-119.346-6.701-1.15-13.5-1.941-20.471-1.941z m249.848-103.878c-59.024 0-111.984 30.301-147.875 78.051-11.374 15.133-21.06 31.986-28.644 50.225-12.21 29.364-19.063 62.221-19.063 96.888 0 49.067 20.51 101.015 48.832 149.384 10.72 18.312 22.562 36.09 34.838 53.021 40.997 56.544 86.823 103.471 111.913 127.649 52.449-50.548 195.587-200.387 195.587-330.054 0-124.151-87.739-225.164-195.588-225.164z"  horiz-adv-x="1024" />

    
    <glyph glyph-name="huoyan" unicode="&#59324;" d="M516.685 34a297.453 297.453 0 0 0-142.216 36.228c-93.474 50.861-153.71 152.508-153.457 258.945 0.178 73.363 28.649 130.511 52.503 165.531l28.743 42.206 21.169-46.463c12.692-27.854 30.661-51.01 53.401-68.806 19.344-15.129 40.26-26.029 53.897-30.885-1.151 3.864-2.447 7.915-3.574 11.452-6.222 19.47-13.964 43.703-15.709 72.259-4.21 68.881 27.479 140.11 94.194 211.714l44.55 47.82 5.132-65.157a492.186 492.186 0 0 1 8.655-60.797c7.794-37.687 15.153-73.278 38.286-106.877 20.902-30.38 37.664-44.339 45.205-48.129 4.627 7.803 11.494 31.512 6.442 71.491L642.791 612.5l60.61-64.717a395.503 395.503 0 0 0 46.669-60.666c21.604-34.581 39.133-75.028 46.88-108.196 18.254-78.219-2.765-197.783-92.052-275.487C652.235 57.606 584.963 34 516.685 34zM298.057 420.798c-10.98-25.187-19.475-56.166-19.559-91.757-0.201-85.638 48.255-167.403 123.452-208.327 86.574-47.1 193.142-36.62 265.209 26.076 71.346 62.098 88.277 157.083 73.812 219.059-4.505 19.283-15.747 50.112-34.211 81.793-7.635-26.188-21.847-44.311-41.397-50.674-33.168-10.816-70.322 13.295-110.456 71.604-29.725 43.17-39.02 88.146-47.226 127.826a43.724 43.724 0 0 0-0.145 0.702c-28.022-41.551-41.018-81.456-38.712-119.134 1.305-21.388 7.565-40.981 13.085-58.262 8.505-26.628 18.151-56.811-5.506-77.582-40.901-35.928-119.625 22.231-134.997 34.244-16.398 12.836-30.882 27.694-43.349 44.432z"  horiz-adv-x="1024" />

    
    <glyph glyph-name="mutou" unicode="&#59325;" d="M441.989 313.811c-36.743 36.743-96.529 36.743-133.272 0s-36.743-96.529 0-133.272 96.529-36.743 133.272 0 36.743 96.529 0 133.272z m-91.186-91.186c-13.535 13.535-13.535 35.565 0 49.1 13.535 13.535 35.565 13.535 49.1 0 13.535-13.535 13.535-35.565 0-49.1-13.535-13.535-35.564-13.535-49.1 0zM501.611 675.049L228.053 401.49l0.178-0.178c-1.205-1.15-2.502-2.146-3.685-3.329-83.155-83.155-83.158-218.458 0-301.616s218.461-83.155 301.616 0c2.373 2.373 4.437 4.93 6.675 7.388L802.87 373.789c79.639 83.413 78.646 215.956-3.329 297.93s-214.517 82.968-297.93 3.33z m42.086-42.086c52.88 49.588 132.451 54.8 190.854 15.496L590.566 504.474l42.086-42.086L776.584 606.32c6.899-10.325 12.256-21.346 16.381-32.72L564.67 345.306a212.417 212.417 0 0 1-38.509 52.677 212.392 212.392 0 0 1-52.677 38.509l161.399 161.399-42.086 42.086-182.663-182.663c-12.998 2.134-26.126 3.096-39.263 2.823l172.826 172.826z m-277.066-494.51c-59.951 59.951-59.951 157.493 0 217.444s157.493 59.951 217.444 0c57.577-57.577 59.694-149.736 6.673-210.059l-3.522-3.522 0.178-0.178c-1.137-1.212-2.146-2.502-3.329-3.685-59.95-59.95-157.493-59.95-217.444 0zM588.35 243.44c0.224 12.89-0.766 25.764-2.858 38.515L800.326 496.79c-4.678-29.41-17.803-57.735-39.541-80.915L588.35 243.44z"  horiz-adv-x="1024" />

    
    <glyph glyph-name="kuangchu" unicode="&#59326;" d="M277.047 34.012L162 149.054l345.489 345.48c-55.131 39.455-116.57 65.807-175.848 75.079l-21.275 3.324-22.515 146.796 26.529 6.197c105.822 24.646 230.074-7.989 336.883-87.618l60.735 60.73L827.044 584l-60.735-60.739c79.624-106.814 112.307-231.06 87.613-336.878l-6.188-26.533-146.796 22.52-3.329 21.275c-9.277 59.283-35.633 120.722-75.079 175.848L277.047 34.012zM245.23 149.054l31.816-31.821L627.56 467.741l20.599-25.039c52.707-64.082 88.274-135.78 103.667-208.598l49.417-7.577c10.273 88.671-25.456 193.569-96.895 280.43l-16.959 20.614L743.813 584l-31.816 31.821-56.429-56.429-20.618 16.955c-86.851 71.439-191.739 107.168-280.43 96.899l7.582-49.417c72.818-15.384 144.516-50.959 208.593-103.672l25.044-20.594L245.23 149.054z"  horiz-adv-x="1024" />

    
    <glyph glyph-name="shuangrenchuang" unicode="&#59327;" d="M823.111 382.63V560.367c0 1.184-0.196 2.326-0.267 3.494-2.797 46.133-60.164 80.522-135.844 80.522-1.462 0-2.915-0.019-4.358-0.047-40.631 28.9-103.289 45.914-170.642 45.914s-130.011-17.014-170.642-45.915a224.497 224.497 0 0 1-4.358 0.047c-75.68 0-133.047-34.389-135.844-80.522-0.071-1.168-0.267-2.31-0.267-3.494V382.63C176.969 359.618 162 327.371 162 291.639V77.75h165.278v58.333h369.444v-58.333H862V291.639c0 35.732-14.969 67.979-38.889 90.991zM259.222 490.593v69.72c1.037 6.015 27.246 25.737 77.778 25.737 3.964 0 7.842-0.18 11.673-0.437l11.659-0.788 8.982 7.472c29.342 24.438 84.02 39.62 142.686 39.62s113.344-15.181 142.686-39.62l8.982-7.472 11.659 0.788c3.831 0.256 7.709 0.437 11.673 0.437 50.531 0 76.741-19.722 77.778-25.604v-145.95c-9.381 2.226-19.114 3.532-29.167 3.532h-8.975c-12.722 44.832-53.975 77.778-102.83 77.778s-90.108-32.945-102.83-77.778h-17.95c-12.722 44.832-53.975 77.778-102.83 77.778s-90.108-32.945-102.83-77.778h-8.975c-10.053 0-19.786-1.305-29.167-3.532v76.097z m403.239-72.565h-77.31c8.881 11.742 22.832 19.444 38.655 19.444s29.774-7.702 38.655-19.444z m-223.611 0h-77.31c8.881 11.742 22.832 19.444 38.655 19.444 15.822 0 29.774-7.702 38.655-19.444z m364.817-281.945h-48.611v58.333H268.944v-58.333h-48.611V291.639c0 37.522 30.529 68.056 68.056 68.056h447.222c37.526 0 68.056-30.534 68.056-68.056v-155.556z"  horiz-adv-x="1024" />

    
    <glyph glyph-name="weiyu" unicode="&#59328;" d="M852.541 322.513c0 39.122-31.824 70.946-70.946 70.946h-437.5V611.027c0 36.508 29.704 66.216 66.216 66.216 22.682 0 42.723-11.476 54.662-28.914-26.863-14.332-45.203-42.623-45.203-75.14v-75.676h170.27v75.676c0 40.129-27.937 73.77-65.359 82.722C506.701 701.559 462.27 734 410.311 734c-67.81 0-122.973-55.168-122.973-122.973v-217.568h-44.932c-39.122 0-70.946-31.824-70.946-70.946 0-30.822 19.787-57.039 47.297-66.807v-23.057c0-59.63 37.016-110.684 89.234-131.647l-26.867-26.868L321.258 34l56.757 56.757h263.241L698.013 34l40.133 40.133-25.599 25.598c54.026 20.067 92.696 71.99 92.696 132.917v23.057c27.51 9.77 47.298 35.987 47.298 66.808zM533.284 554.27h-56.757v18.919c0 15.649 12.73 28.378 28.378 28.378s28.378-12.73 28.378-28.378v-18.919zM242.405 336.703h539.189c7.69 0 14.189-6.494 14.189-14.189s-6.499-14.189-14.189-14.189H242.406c-7.69 0-14.189 6.494-14.189 14.189-0.001 7.695 6.498 14.189 14.188 14.189z m420.946-189.19H360.649c-46.942 0-85.135 38.189-85.135 85.135v18.919h472.973v-18.919c0-46.946-38.194-85.135-85.136-85.135zM438.689 488.054h56.757v-56.757h-56.757zM514.365 488.054h56.757v-56.757h-56.757z"  horiz-adv-x="1024" />

    
    <glyph glyph-name="zhiwu" unicode="&#59329;" d="M843.081 590.05l-40.133 40.133-94.357-94.357v52.166l73.004 73.004-40.133 40.133-32.87-32.87V734h-56.757v-65.74l-32.87 32.87-40.133-40.133 73.004-73.004v-52.166l-94.357 94.357-40.133-40.133 92.537-92.537H414.119l92.537 92.537-40.133 40.133-94.357-94.357v52.166l73.004 73.004-40.133 40.133-32.87-32.87V734H315.41v-65.74l-32.87 32.87-40.133-40.133 73.004-73.004v-52.166l-94.357 94.357-40.133-40.133 92.537-92.537h-92.537v-160.811h91.11L303.892 34h416.216l31.863 302.703h91.11V497.514h-92.537l92.537 92.536z m-170.27-499.293H351.189L332.27 336.703h359.46l-18.919-245.946z m113.513 302.702H237.676v47.297h548.649v-47.297z"  horiz-adv-x="1024" />

    
    <glyph glyph-name="yezi" unicode="&#59330;" d="M768.598 280.595c-18.551 52.177-106.662 47.63-180.685 21.312l0.005 0.002c-33.925-12.055-64.519-28.407-87.321-46.457-0.03 5.864 0.29 11.531 1.085 16.921 3.942 26.757 9.829 53.115 17.21 79.116 10.222-7.455 23.373-12.002 38.377-13.958 29.83-3.888 66.535 2.037 99.823 13.53 31.656 10.935 59.987 26.664 79.783 44.284 35.19 31.325 32.677 58.483 28.05 71.876-4.625 13.411-19.462 36.296-66.431 39.246-26.449 1.648-58.453-3.467-90.108-14.399-14.266-4.928-27.795-10.869-40.232-17.477 6.189 11.791 12.826 23.445 19.787 34.994 6.542-0.371 13.072-0.036 19.485 1.202a76.26 76.26 0 0 1 7.016 1.698c16.084 4.68 39.426 17.208 59.284 50.286 15.072 25.109 24.82 55.922 26.749 84.55 2.487 37.004-8.603 64.872-31.235 78.447-22.63 13.594-52.433 10.261-83.921-9.328-24.353-15.171-46.963-38.265-62.031-63.372-33.415-55.667-16.241-98.551 12.094-122.189a732.72 732.72 0 0 1-21.285-38.88c-4.514 17.591-11.188 35.468-19.38 52.216-29.591 60.511-82.408 115.376-128.451 92.86-46.025-22.525-35.145-97.895-5.554-158.397 24.947-51.014 66.401-98.023 106.394-98.023 0.694 0 1.384 0.087 2.078 0.116-6.403-20.845-11.973-41.903-16.334-63.235-4.854 6.911-9.978 13.78-15.449 20.527-24.87 30.665-53.295 55.949-80.031 71.191-46.571 26.541-73.435 14.349-85.303 4.725-11.868-9.624-29.34-33.387-12.983-84.429 9.387-29.318 28.257-62.35 53.127-93.015s53.295-55.949 80.036-71.2c21.009-11.973 38.008-16.061 51.429-16.061 5.104 0 9.633 0.637 13.726 1.614 0.477-7.345 0.237-13.22-1.357-15.617-2.008-1.275-9.301-0.965-15.742-0.683-15.606 0.71-36.956 1.648-61.867-10.735-25.976-12.911-46.239-35.554-60.224-67.294L369.397 34c8.572 19.448 19.99 32.832 33.934 39.761 11.977 5.945 21.934 5.481 34.489 4.944 14.076-0.601 31.557-1.402 48.547 9.56 17.04 10.992 24.166 26.948 26.231 45.297 15.938-3.098 34.255-3.355 53.543-1.304 24.745 2.629 51.042 8.996 75.759 17.775 74.02 26.307 145.24 78.391 126.698 130.562zM626.654 439.187c41.574 14.372 71.964 12.781 83.17 9.007-6.479-9.881-29.42-29.893-70.997-44.252-41.586-14.37-71.986-12.77-83.175-9.007 6.48 9.891 29.42 29.892 71.002 44.252z m-163.113-1.006c-10.598 5.226-33.251 25.557-52.58 65.081-19.325 39.515-21.46 69.879-19.075 81.452 10.598-5.226 33.251-25.557 52.58-65.081 19.325-39.515 21.46-69.88 19.075-81.452z m-22.17-232.965c-12.701 1.621-47.723 19.712-85.713 66.556-37.981 46.835-48.456 84.839-47.413 97.604 12.701-1.612 47.718-19.703 85.708-66.547s48.46-84.848 47.418-97.613z m129.876 419.072c19.055 31.737 50.041 51.014 63.778 53.666 2.356 0.455 4.204 0.412 5.397-0.125 7.178-5.477 7.673-49.066-14.659-86.268-8.34-13.887-17.663-22.66-26.955-25.371-7.088-1.999-14.743-0.628-22.821 4.211-6.739 4.047-27.254 16.362-4.74 53.887z m51.917-421.548c-56.839-20.179-96.14-17.395-107.831-12.155 5.761 11.443 34.491 38.422 91.315 58.617h0.005c56.819 20.21 96.14 17.404 107.831 12.164-5.762-11.445-34.497-38.423-91.32-58.626z"  horiz-adv-x="1024" />

    
    <glyph glyph-name="feiji" unicode="&#59331;" d="M839.21 711.215c-30.392 30.378-79.84 30.383-110.223-0.005l-96.801-96.796-341.126 85.374-97.803-97.803 284.742-141.759-61.763-61.763-175.058 32.429L162 351.714l226.046-91.664L479.713 34l79.178 79.188-32.429 175.048 61.763 61.763 141.759-284.732 97.803 97.793-85.374 341.126 96.801 96.801c30.383 30.388 30.383 79.836-0.004 110.228z m-41.059-69.168L678.093 521.994l85.374-341.126-17.472-17.468-141.758 284.737-140.44-140.44 27.254-147.127-58.417 144.065-144.065 58.417 147.127-27.254 140.44 140.44-284.741 141.758 17.472 17.472 341.127-85.374 120.053 120.053c7.746 7.746 20.355 7.751 28.1 0.005 7.745-7.751 7.745-20.355 0.004-28.105z"  horiz-adv-x="1024" />

    
    <glyph glyph-name="chuan" unicode="&#59332;" d="M838.806 140.146l-70.265-25.573 61.767 182.848 18.211 53.914-53.475 19.464-36.515 13.29V610.735H644.746V734H379.254v-123.265H265.471v-226.646l-36.513-13.29-53.475-19.464 18.211-53.914 61.764-182.85-70.265 25.575-19.457-53.461 61.579-22.413 51.461-18.73L310.487 34l28.71 10.45 54.461 19.823 89.897 32.719 36.759 13.38 20.133-7.329 98.21-35.745 47.97-17.459 35.201-12.813 23.397 8.517 59.773 21.756 53.266 19.387-19.458 53.46zM436.145 677.109h151.71v-66.373h-151.71v66.373z m47.409-519.574l-46.412-16.894-116.158-42.28-73.816 218.523 236.385 86.038v-245.387zM512 473.818l-28.446-10.352-54.725-19.918-106.468-38.752V553.844h379.276v-149.048L595.17 443.548l-54.725 19.918L512 473.818z m192.837-370.065l-101.356 36.888-63.035 22.943V402.923l236.387-86.038-71.996-213.132z"  horiz-adv-x="1024" />

    
    <glyph glyph-name="huojian" unicode="&#59333;" d="M511.998 535.351c-41.727 0-75.676-33.949-75.676-75.676S470.271 384 511.998 384s75.676 33.949 75.676 75.676-33.949 75.675-75.676 75.675z m0-94.594c-10.434 0-18.919 8.49-18.919 18.919s8.485 18.919 18.919 18.919c10.434 0 18.919-8.49 18.919-18.919 0-10.43-8.485-18.919-18.919-18.919zM717.441 315.673v85.385c0 78.022-22.374 134.936-64.701 200.367-28.166 43.538-64.267 80.78-106.054 110.41-11.182 7.926-22.706 15.385-34.688 22.166-11.977-6.781-23.501-14.24-34.683-22.166-41.787-29.63-77.888-66.872-106.054-110.41-42.327-65.431-64.701-122.345-64.701-200.367v-85.385l-37.353-75.195v-87.066h485.587v87.066l-37.353 75.195z m-19.404-105.504H325.963v6.808l37.353 75.195V401.058c0 67.057 19.228 113.31 55.597 169.54 24.651 38.101 56.327 70.613 93.084 96.262 36.757-25.649 68.438-58.161 93.089-96.262 36.369-56.23 55.597-102.484 55.597-169.54v-108.885l37.353-75.195v-6.809zM512.002 96.835c-22.425 11.455-36.803 25.318-53.916 41.219h-80.692c35.565-41.364 72.105-75.075 122.673-98.521L512.002 34l11.935 5.533c50.563 23.445 87.098 57.154 122.664 98.521h-80.683c-17.112-15.9-31.491-29.764-53.916-41.219z"  horiz-adv-x="1024" />

    
    <glyph glyph-name="fahuo" unicode="&#59338;" d="M715.599 568.459H578.216v66.216H162V209h108.088c12.395-43.609 52.492-75.676 100.02-75.676s87.625 32.067 100.02 75.676H591.71c12.395-43.609 52.492-75.676 100.02-75.676S779.355 165.391 791.75 209H862V409.41L715.599 568.459zM370.108 190.081c-26.078 0-47.297 21.219-47.297 47.297s21.219 47.297 47.297 47.297c26.078 0 47.297-21.219 47.297-47.297s-21.219-47.297-47.297-47.297z m151.351 378.378v-302.703h-51.331c-12.395 43.609-52.492 75.676-100.02 75.676s-87.625-32.067-100.02-75.676h-51.331V577.919H521.46v-9.46zM691.73 190.081c-26.078 0-47.297 21.219-47.297 47.297s21.219 47.297 47.297 47.297 47.297-21.219 47.297-47.297-21.219-47.297-47.297-47.297z m113.513 75.676H791.75c-12.395 43.609-52.492 75.676-100.02 75.676s-87.625-32.067-100.02-75.676h-13.494V511.703h112.485l114.542-124.438v-121.508z"  horiz-adv-x="1024" />

    
    <glyph glyph-name="liucheng1" unicode="&#59342;" d="M809.186 298.373C810.987 311.666 812 325.211 812 339c0 123.108-74.182 228.842-180.258 275.083C629.051 677.884 576.451 729 512 729s-117.051-51.116-119.742-114.917C286.182 567.842 212 462.108 212 339c0-13.789 1.013-27.334 2.814-40.627C182.969 276.773 162 240.292 162 199c0-66.167 53.833-120 120-120 20.793 0 40.361 5.33 57.43 14.675C388.248 59.271 447.739 39 512 39s123.752 20.271 172.57 54.675C701.639 84.33 721.207 79 742 79c66.167 0 120 53.833 120 120 0 41.292-20.969 77.773-52.814 99.373zM512 669c24.167 0 44.99-14.391 54.487-35.028C569.992 626.357 572 617.918 572 609c0-13.044-4.23-25.093-11.326-34.946C549.773 558.912 532.042 549 512 549s-37.773 9.912-48.674 25.054C456.23 583.907 452 595.956 452 609c0 8.918 2.008 17.357 5.513 24.972C467.01 654.609 487.833 669 512 669zM282 139c-33.086 0-60 26.914-60 60 0 12.097 3.627 23.347 9.808 32.781C242.535 248.148 261.011 259 282 259c1.274 0 2.52-0.112 3.774-0.19C317.1 256.845 342 230.812 342 199a59.603 59.603 0 0 0-5.078-24.071c-8.506-19.33-26.891-33.367-48.746-35.612-2.03-0.208-4.091-0.317-6.176-0.317z m230-40c-47.09 0-90.973 13.615-128.035 37.045C395.325 154.374 402 175.897 402 199c0 66.167-53.833 120-120 120-3.062 0-6.067-0.233-9.071-0.459-0.57 6.751-0.929 13.561-0.929 20.459 0 94.266 54.373 175.793 133.442 215.049C425.42 515.472 465.643 489 512 489s86.58 26.472 106.558 65.049C697.627 514.793 752 433.266 752 339c0-6.898-0.359-13.708-0.929-20.459-3.004 0.226-6.01 0.459-9.071 0.459-66.167 0-120-53.833-120-120 0-23.103 6.675-44.626 18.035-62.955C602.973 112.615 559.09 99 512 99z m230 40c-2.085 0-4.146 0.109-6.176 0.317-21.855 2.245-40.24 16.282-48.746 35.612A59.603 59.603 0 0 0 682 199c0 31.812 24.9 57.845 56.226 59.81 1.255 0.078 2.5 0.19 3.774 0.19 20.989 0 39.465-10.852 50.192-27.219C798.373 222.347 802 211.097 802 199c0-33.086-26.914-60-60-60z"  horiz-adv-x="1024" />

    
    <glyph glyph-name="shijian" unicode="&#59344;" d="M512 734c-193.3 0-350-156.699-350-350s156.7-350 350-350 350 156.699 350 350-156.7 350-350 350z m0-640c-160.162 0-290 129.839-290 290 0 160.164 129.838 290 290 290s290-129.836 290-290c0-160.161-129.838-290-290-290zM537 564h-60v-220h220v60H537z"  horiz-adv-x="1024" />

    
    <glyph glyph-name="lanqiu" unicode="&#59298;" d="M861.185 360.199c1.362 20.174 1.026 40.435-1.08 60.557-8.063 77.075-41.503 151.971-100.441 210.909s-133.833 92.378-210.909 100.441c-20.121 2.106-40.383 2.442-60.557 1.08-81.6-5.511-161.627-39.285-223.863-101.521s-96.01-142.264-101.521-223.863c-1.362-20.174-1.026-40.435 1.08-60.557 8.063-77.076 41.503-151.971 100.441-210.909s133.833-92.378 210.909-100.441c20.121-2.106 40.383-2.442 60.557-1.08 81.6 5.511 161.627 39.285 223.863 101.521s96.01 142.263 101.521 223.863zM737.303 201.154l-96.8 96.8c47.024 38.2 103.293 59.482 160.644 63.844-4.362-57.352-25.644-113.62-63.844-160.644z m-139.45 139.449L554.457 384l182.761 182.761c34.709-42.736 55.564-93.045 62.33-144.925-72.22-4.878-143.183-31.94-201.695-81.233z m96.908 268.615L512 426.457l-43.397 43.397c49.292 58.511 76.354 129.475 81.232 201.695 51.881-6.767 102.191-27.622 144.926-62.331z m-204.964 63.929c-4.361-57.351-25.643-113.62-63.844-160.644l-96.8 96.8c47.025 38.2 103.293 59.482 160.644 63.844z m-203.1-106.301l96.8-96.8c-47.024-38.2-103.293-59.482-160.644-63.844 4.362 57.352 25.644 113.62 63.844 160.644z m139.45-139.449L469.543 384 286.782 201.239c-34.709 42.736-55.564 93.045-62.33 144.925 72.22 4.878 143.183 31.94 201.695 81.233z m-96.908-268.615L512 341.543l43.397-43.397c-49.292-58.511-76.354-129.475-81.232-201.695-51.881 6.767-102.191 27.622-144.926 62.331z m204.964-63.929c4.361 57.351 25.643 113.62 63.844 160.644l96.8-96.8c-47.025-38.2-103.293-59.482-160.644-63.844z"  horiz-adv-x="1024" />

    
    <glyph glyph-name="pinpai" unicode="&#59300;" d="M228.348 105.324h567.304v-59.716H228.348zM795.628 652.723L666.296 546.042l-119.915 176.35H477.62l-119.916-176.35-129.332 106.681H162l65.206-472.753h569.588L862 652.723h-66.372z m-50.881-413.037H279.253l-45.706 331.355 136.704-112.745L512 666.758l141.748-208.463L790.452 571.04l-45.705-331.354z"  horiz-adv-x="1024" />

    
    <glyph glyph-name="liwuhe" unicode="&#59299;" d="M774.5 574.5H650.993c5.212 2.905 10.097 6.138 14.128 10.168 34.118 34.118 34.113 89.632 0 123.745-34.116 34.113-89.627 34.118-123.745 0-23.43-23.432-26.266-69.2-27.092-110.268-0.031-1.662-0.055-3.157-0.083-4.439l-2.2-5.469-2.2 5.469c-0.031 1.282-0.055 2.777-0.085 4.439-0.826 41.068-3.662 86.835-27.092 110.268-34.118 34.118-89.629 34.113-123.742 0-34.116-34.113-34.118-89.627 0-123.745 4.028-4.03 8.913-7.263 14.125-10.168H249.5c-48.246 0-87.5-39.25-87.5-87.5 0-44.961 34.095-82.069 77.778-86.926V34h544.444V400.074C827.904 404.931 862 442.039 862 487c0 48.25-39.254 87.5-87.5 87.5z m-191.795 92.746c11.381 11.294 29.822 11.265 41.168-0.081 11.372-11.374 11.372-29.874 0-41.248-3.297-2.772-14.41-7.42-50.574-9.323 1.9 36.002 6.524 47.196 9.406 50.652z m-182.579-0.081c11.346 11.346 29.786 11.374 41.168 0.081 2.882-3.456 7.508-14.65 9.407-50.652-36.162 1.904-47.277 6.551-50.574 9.323-11.373 11.374-11.373 29.874-0.001 41.248zM249.5 457.833c-16.083 0-29.167 13.083-29.167 29.167 0 16.083 13.083 29.167 29.167 29.167h179.861v-58.333H249.5z m476.389-365.5H298.111V399.5h131.25v-307.164h58.333V516.166h48.611v-423.83h58.333V399.5h131.25v-307.167z m48.611 365.5H594.639v58.333H774.5c16.083 0 29.167-13.083 29.167-29.167 0-16.083-13.083-29.166-29.167-29.166z"  horiz-adv-x="1024" />

    
    <glyph glyph-name="seban" unicode="&#59301;" d="M516.482 733.971c-192.973 2.471-351.98-152.519-354.455-345.493-1.97-153.989 96.299-286.338 234.145-334.787 34.904-12.271 72.358-19.165 111.344-19.661 56.565-0.728 95.72 11.968 97.359 12.51l4.646 1.978c6.658 3.53 13.54 7.175 19.988 11.938 5.171 3.804 14.8 10.872 20.303 23.42 1.311 2.996 5.443 13.892 3.325 28.083-3.01 20.261-19.121 36.565-36.171 53.833-6.981 7.07-14.203 14.38-18.693 20.337-4.871 6.682-16.725 28.086-13.533 47.427 3.252 19.746 20.926 40.034 39.399 45.215 19.409 5.464 39.902-6.367 68.946-25.024 30.421-19.556 64.908-41.68 103.547-26.072 28.574 11.57 48.185 40.574 58.326 86.438 0.271 1.26 6.572 31.238 7.012 65.41 2.469 192.973-152.551 351.992-345.488 354.448z m279.844-407.134c-5.254-23.762-13.56-40.044-22.191-43.542-9.84-3.962-29.552 8.691-48.617 20.933-31.536 20.256-70.781 45.471-117.594 32.314-40.712-11.423-75.358-50.627-82.389-93.225-7.904-47.954 21.339-88.647 24.7-93.132l0.016-0.015c6.92-9.214 15.614-18.025 24.022-26.54 4.729-4.778 11.678-11.816 16.132-17.173-1.859-1.104-4.017-2.283-6.364-3.538-7.848-2.2-36.631-9.399-75.753-8.894-159.897 2.051-288.314 133.789-286.263 293.691 2.043 159.885 133.799 288.31 293.686 286.259 32.311-0.417 63.33-6.125 92.255-16.294 114.208-40.149 195.646-149.812 194.009-277.397-0.359-28.019-5.649-53.447-5.649-53.447zM693.577 423.266c-7.325-20.835 3.628-43.665 24.463-50.989 20.835-7.324 43.663 3.628 50.989 24.463 7.324 20.835-3.628 43.664-24.464 50.989-20.835 7.324-43.664-3.628-50.988-24.463zM375.507 570.441c-20.836 7.324-43.663-3.628-50.989-24.463s3.628-43.662 24.464-50.989c20.835-7.324 43.662 3.628 50.988 24.463 7.326 20.837-3.628 43.665-24.463 50.989zM473.237 639.684c-20.835 7.324-43.663-3.628-50.988-24.463-7.325-20.835 3.628-43.665 24.463-50.989 20.835-7.324 43.663 3.628 50.989 24.463 7.324 20.835-3.628 43.665-24.464 50.989zM696.634 561.693c-20.835 7.327-43.663-3.625-50.989-24.463-7.324-20.835 3.628-43.662 24.463-50.989 20.836-7.324 43.665 3.628 50.989 24.463 7.324 20.838-3.628 43.665-24.463 50.989zM596.568 634.557c-20.835 7.324-43.663-3.628-50.989-24.463-7.324-20.835 3.628-43.665 24.464-50.989 20.835-7.324 43.663 3.628 50.987 24.463 7.326 20.835-3.627 43.665-24.462 50.989z"  horiz-adv-x="1024" />

    
    <glyph glyph-name="waixingren" unicode="&#59302;" d="M801.414 520.47C762.078 629.704 646.91 737.809 502.997 733.897 362.051 729.786 259.14 620.381 223.165 520.47 185.5 415.85 208.14 283.886 282.254 176.066c60.01-87.302 142.622-140.395 220.985-142.019 1.277-0.029 2.54-0.047 3.822-0.047 80.29 0 165.826 52.524 229.534 141.193 77.717 108.171 102.554 240.467 64.819 345.277zM689.222 209.231c-52.709-73.364-123.533-118.026-184.768-116.868-59.635 1.244-124.729 44.89-174.129 116.754-63.656 92.6-83.689 204.331-52.272 291.586 29.485 81.909 112.989 171.566 226.643 174.879 2.155 0.066 4.296 0.095 6.437 0.095 113.208 0 203.776-87.169 235.393-174.974 37.441-103.984-5.051-218.745-57.304-291.472zM442.03 396.742c-17.713 17.714-39.44 28.953-62.271 33.933a127.041 127.041 0 0 1-70.151-4.631 127.038 127.038 0 0 1-4.63-70.153c4.979-22.83 16.218-44.558 33.932-62.27 17.713-17.714 39.44-28.953 62.271-33.933a127.041 127.041 0 0 1 70.151 4.631 127.038 127.038 0 0 1 4.63 70.153c-4.979 22.83-16.218 44.558-33.932 62.27z m-61.872-61.871c-11.195 11.194-17.609 25.357-19.357 39.981 14.623-1.749 28.786-8.163 39.981-19.359 11.195-11.194 17.609-25.357 19.357-39.981-14.623 1.749-28.786 8.163-39.981 19.359zM644.24 430.676c-22.831-4.98-44.558-16.219-62.271-33.933-17.714-17.712-28.953-39.44-33.932-62.27a127.039 127.039 0 0 1 4.63-70.153 127.042 127.042 0 0 1 70.151-4.631c22.831 4.98 44.558 16.219 62.271 33.933 17.714 17.712 28.953 39.44 33.932 62.27a127.039 127.039 0 0 1-4.63 70.153 127.04 127.04 0 0 1-70.151 4.631z m-0.398-95.805c-11.195-11.196-25.359-17.61-39.981-19.359 1.748 14.624 8.162 28.787 19.357 39.981 11.195 11.196 25.359 17.61 39.981 19.359-1.749-14.623-8.162-28.787-19.357-39.981z"  horiz-adv-x="1024" />

    


  </font>
</defs>
</svg>
